<?xml version="1.0" encoding="UTF-8" standalone="no"?>
<svg width="750" height ="400" version="1.1"
xmlns:svg ="http://www.w3.org/2000/svg"
xmlns:rdf="http://www.w3.org/1999/02/22-rdf-syntax-ns#"
xmlns:cc="http://web.resource.org/cc/"
xmlns:dc="http://purl.org/dc/elements/1.1/"
xmlns ="http://www.w3.org/2000/svg"
>
<!-- SVG plot written using Boost.Plot program (Creator Jacob Voytko) --> 
<!-- Use, modification and distribution of Boost.Plot subject to the --> 
<!-- Boost Software License, Version 1.0.--> 
<!-- (See accompanying file LICENSE_1_0.txt --> 
<!-- or copy at http://www.boost.org/LICENSE_1_0.txt) --> 

<clipPath id="plot_window"><rect x="85.2" y="59" width="473.6" height="281"/></clipPath>
<g id="imageBackground" stroke="rgb(119,136,153)" fill="rgb(255,255,255)" stroke-width="2"><rect x="0" y="0" width="750" height="400"/></g>
<g id="plotBackground" stroke="rgb(119,136,153)" fill="rgb(255,255,255)" stroke-width="2"><rect x="84.2" y="58" width="475.6" height="283"/></g>
<g id="yMinorGrid" stroke="rgb(200,220,255)" stroke-width="0.5"></g>
<g id="yMajorGrid" stroke="rgb(200,220,255)" stroke-width="1"></g>
<g id="xMinorGrid" stroke="rgb(200,220,255)" stroke-width="0.5"></g>
<g id="xMajorGrid" stroke="rgb(200,220,255)" stroke-width="1"></g>
<g id="yAxis" stroke="rgb(0,0,0)" stroke-width="1"><line x1="322" y1="58" x2="322" y2="346"/><line x1="84.2" y1="58" x2="84.2" y2="341"/></g>
<g id="xAxis" stroke="rgb(0,0,0)" stroke-width="1"><line x1="79.2" y1="341" x2="559.8" y2="341"/><line x1="79.2" y1="341" x2="559.8" y2="341"/></g>
<g id="yMinorTicks" stroke="rgb(0,0,0)" stroke-width="1"><path d="M82.2,327.8 L84.2,327.8 M82.2,314.6 L84.2,314.6 M82.2,301.3 L84.2,301.3 M82.2,288.1 L84.2,288.1 M82.2,261.7 L84.2,261.7 M82.2,248.4 L84.2,248.4 M82.2,235.2 L84.2,235.2 M82.2,222 L84.2,222 M82.2,195.5 L84.2,195.5 M82.2,182.3 L84.2,182.3 M82.2,169.1 L84.2,169.1 M82.2,155.9 L84.2,155.9 M82.2,129.4 L84.2,129.4 M82.2,116.2 L84.2,116.2 M82.2,103 L84.2,103 M82.2,89.75 L84.2,89.75 M82.2,63.3 L84.2,63.3 M82.2,341 L84.2,341 " fill="none"/></g>
<g id="xMinorTicks" stroke="rgb(0,0,0)" stroke-width="1"><path d="M347.7,341 L347.7,343 M373.4,341 L373.4,343 M399.1,341 L399.1,343 M424.8,341 L424.8,343 M476.2,341 L476.2,343 M501.9,341 L501.9,343 M527.6,341 L527.6,343 M553.3,341 L553.3,343 M296.3,341 L296.3,343 M270.6,341 L270.6,343 M244.9,341 L244.9,343 M219.2,341 L219.2,343 M167.8,341 L167.8,343 M142.1,341 L142.1,343 M116.4,341 L116.4,343 M90.7,341 L90.7,343 " fill="none"/></g>
<g id="yMajorTicks" stroke="rgb(0,0,0)" stroke-width="2"><path d="M79.2,341 L84.2,341 M79.2,274.9 L84.2,274.9 M79.2,208.8 L84.2,208.8 M79.2,142.6 L84.2,142.6 M79.2,76.53 L84.2,76.53 M79.2,341 L84.2,341 " fill="none"/></g>
<g id="xMajorTicks" stroke="rgb(0,0,0)" stroke-width="2"><path d="M322,341 L322,346 M450.5,341 L450.5,346 M322,341 L322,346 M193.5,341 L193.5,346 " fill="none"/></g>
<g id="xTicksValues">
<text x="322" y="361.6" text-anchor="middle" font-size="12" font-family="Verdana">0</text>
<text x="450.5" y="361.6" text-anchor="middle" font-size="12" font-family="Verdana">10</text>
<text x="322" y="361.6" text-anchor="middle" font-size="12" font-family="Verdana">0</text>
<text x="193.5" y="361.6" text-anchor="middle" font-size="12" font-family="Verdana">-10</text></g>
<g id="yTicksValues">
<text x="73.2" y="343.4" text-anchor="end" font-size="12" font-family="Verdana">0</text>
<text x="73.2" y="277.3" text-anchor="end" font-size="12" font-family="Verdana">0.1</text>
<text x="73.2" y="211.2" text-anchor="end" font-size="12" font-family="Verdana">0.2</text>
<text x="73.2" y="145" text-anchor="end" font-size="12" font-family="Verdana">0.3</text>
<text x="73.2" y="78.93" text-anchor="end" font-size="12" font-family="Verdana">0.4</text>
<text x="73.2" y="343.4" text-anchor="end" font-size="12" font-family="Verdana">0</text></g>
<g id="yLabel">
<text x="42.9" y="199.5" text-anchor="middle" transform = "rotate(-90 42.9 199.5 )" font-size="14" font-family="Verdana">Probability</text></g>
<g id="xLabel">
<text x="322" y="376.7" text-anchor="middle" font-size="14" font-family="Verdana">Random Variable</text></g>
<g id="plotLines" stroke-width="2"><g clip-path="url(#plot_window)" stroke="rgb(0,0,139)" stroke-width="1"><path d="M84.2,335.6 L86.58,335.1 L88.96,334.7 L91.33,334.2 L93.71,333.6 L96.09,333 L98.47,332.4 L100.8,331.7 L103.2,331 L105.6,330.2 L108,329.3 L110.4,328.3 L112.7,327.3 L115.1,326.2 L117.5,325.1 L119.9,323.8 L122.2,322.4 L124.6,321 L127,319.4 L129.4,317.7 L131.8,315.9 L134.1,314 L136.5,312 L138.9,309.8 L141.3,307.4 L143.6,304.9 L146,302.3 L148.4,299.5 L150.8,296.6 L153.2,293.5 L155.5,290.3 L157.9,286.9 L160.3,283.4 L162.7,279.8 L165,276.1 L167.4,272.2 L169.8,268.3 L172.2,264.4 L174.6,260.5 L176.9,256.6 L179.3,252.8 L181.7,249.1 L184.1,245.7 L186.4,242.5 L188.8,239.6 L191.2,237.1 L193.6,235.1 L196,233.6 L198.3,232.8 L200.7,232.6 L203.1,233.3 L205.5,234.7 L207.8,237 L210.2,240.1 L212.6,244.1 L215,248.9 L217.4,254.5 L219.7,260.8 L222.1,267.6 L224.5,274.9 L226.9,282.4 L229.2,289.9 L231.6,297.4 L234,304.5 L236.4,311.2 L238.8,317.2 L241.1,322.6 L243.5,327.1 L245.9,330.9 L248.3,333.9 L250.6,336.2 L253,337.9 L255.4,339.1 L257.8,339.9 L260.2,340.4 L262.5,340.7 L264.9,340.8 L267.3,340.9 L269.7,341 L272,341 L274.4,341 L276.8,341 L279.2,341 L281.6,341 L283.9,341 L286.3,341 L288.7,341 L291.1,341 L293.4,341 L295.8,341 L298.2,341 L300.6,341 L303,341 L305.3,341 L307.7,341 L310.1,341 L312.5,341 L314.8,341 L317.2,341 L319.6,341 L322,341 L324.4,341 L326.7,341 L329.1,341 L331.5,341 L333.9,341 L336.2,341 L338.6,341 L341,341 L343.4,341 L345.8,341 L348.1,341 L350.5,341 L352.9,341 L355.3,341 L357.6,341 L360,341 L362.4,341 L364.8,341 L367.2,341 L369.5,341 L371.9,341 L374.3,341 L376.7,341 L379,341 L381.4,341 L383.8,341 L386.2,341 L388.6,341 L390.9,341 L393.3,341 L395.7,341 L398.1,341 L400.4,341 L402.8,341 L405.2,341 L407.6,341 L410,341 L412.3,341 L414.7,341 L417.1,341 L419.5,341 L421.8,341 L424.2,341 L426.6,341 L429,341 L431.4,341 L433.7,341 L436.1,341 L438.5,341 L440.9,341 L443.2,341 L445.6,341 L448,341 L450.4,341 L452.8,341 L455.1,341 L457.5,341 L459.9,341 L462.3,341 L464.6,341 L467,341 L469.4,341 L471.8,341 L474.2,341 L476.5,341 L478.9,341 L481.3,341 L483.7,341 L486,341 L488.4,341 L490.8,341 L493.2,341 L495.6,341 L497.9,341 L500.3,341 L502.7,341 L505.1,341 L507.4,341 L509.8,341 L512.2,341 L514.6,341 L517,341 L519.3,341 L521.7,341 L524.1,341 L526.5,341 L528.8,341 L531.2,341 L533.6,341 L536,341 L538.4,341 L540.7,341 L543.1,341 L545.5,341 L547.9,341 L550.2,341 L552.6,341 L555,341 L557.4,341 L559.8,341 " fill="none"/></g>
<g clip-path="url(#plot_window)" stroke="rgb(139,0,0)" stroke-width="1"><path d="M84.2,341 L86.58,341 L88.96,340.9 L91.33,340.9 L93.71,340.9 L96.09,340.9 L98.47,340.9 L100.8,340.9 L103.2,340.9 L105.6,340.9 L108,340.9 L110.4,340.9 L112.7,340.9 L115.1,340.8 L117.5,340.8 L119.9,340.8 L122.2,340.8 L124.6,340.8 L127,340.7 L129.4,340.7 L131.8,340.7 L134.1,340.6 L136.5,340.6 L138.9,340.5 L141.3,340.5 L143.6,340.4 L146,340.3 L148.4,340.2 L150.8,340.1 L153.2,340 L155.5,339.9 L157.9,339.7 L160.3,339.6 L162.7,339.4 L165,339.1 L167.4,338.9 L169.8,338.6 L172.2,338.3 L174.6,337.9 L176.9,337.5 L179.3,337 L181.7,336.4 L184.1,335.8 L186.4,335 L188.8,334.2 L191.2,333.2 L193.6,332.1 L196,330.8 L198.3,329.3 L200.7,327.6 L203.1,325.7 L205.5,323.5 L207.8,321 L210.2,318.1 L212.6,314.9 L215,311.2 L217.4,307.1 L219.7,302.4 L222.1,297.1 L224.5,291.3 L226.9,284.7 L229.2,277.5 L231.6,269.6 L234,261.1 L236.4,251.8 L238.8,242 L241.1,231.7 L243.5,221.2 L245.9,210.5 L248.3,200.1 L250.6,190.2 L253,181.3 L255.4,173.9 L257.8,168.5 L260.2,165.5 L262.5,165.5 L264.9,168.7 L267.3,175.4 L269.7,185.5 L272,198.7 L274.4,214.5 L276.8,232.1 L279.2,250.5 L281.6,268.5 L283.9,285.4 L286.3,300.2 L288.7,312.5 L291.1,322.1 L293.4,329.1 L295.8,333.9 L298.2,337 L300.6,338.9 L303,339.9 L305.3,340.5 L307.7,340.8 L310.1,340.9 L312.5,341 L314.8,341 L317.2,341 L319.6,341 L322,341 L324.4,341 L326.7,341 L329.1,341 L331.5,341 L333.9,341 L336.2,341 L338.6,341 L341,341 L343.4,341 L345.8,341 L348.1,341 L350.5,341 L352.9,341 L355.3,341 L357.6,341 L360,341 L362.4,341 L364.8,341 L367.2,341 L369.5,341 L371.9,341 L374.3,341 L376.7,341 L379,341 L381.4,341 L383.8,341 L386.2,341 L388.6,341 L390.9,341 L393.3,341 L395.7,341 L398.1,341 L400.4,341 L402.8,341 L405.2,341 L407.6,341 L410,341 L412.3,341 L414.7,341 L417.1,341 L419.5,341 L421.8,341 L424.2,341 L426.6,341 L429,341 L431.4,341 L433.7,341 L436.1,341 L438.5,341 L440.9,341 L443.2,341 L445.6,341 L448,341 L450.4,341 L452.8,341 L455.1,341 L457.5,341 L459.9,341 L462.3,341 L464.6,341 L467,341 L469.4,341 L471.8,341 L474.2,341 L476.5,341 L478.9,341 L481.3,341 L483.7,341 L486,341 L488.4,341 L490.8,341 L493.2,341 L495.6,341 L497.9,341 L500.3,341 L502.7,341 L505.1,341 L507.4,341 L509.8,341 L512.2,341 L514.6,341 L517,341 L519.3,341 L521.7,341 L524.1,341 L526.5,341 L528.8,341 L531.2,341 L533.6,341 L536,341 L538.4,341 L540.7,341 L543.1,341 L545.5,341 L547.9,341 L550.2,341 L552.6,341 L555,341 L557.4,341 L559.8,341 " fill="none"/></g>
<g clip-path="url(#plot_window)" stroke="rgb(0,100,0)" stroke-width="1"><path d="M84.2,341 L86.58,341 L88.96,341 L91.33,341 L93.71,341 L96.09,341 L98.47,341 L100.8,341 L103.2,341 L105.6,341 L108,341 L110.4,341 L112.7,341 L115.1,341 L117.5,341 L119.9,341 L122.2,341 L124.6,341 L127,341 L129.4,341 L131.8,341 L134.1,341 L136.5,341 L138.9,341 L141.3,341 L143.6,341 L146,341 L148.4,341 L150.8,341 L153.2,341 L155.5,341 L157.9,341 L160.3,341 L162.7,341 L165,341 L167.4,341 L169.8,341 L172.2,341 L174.6,341 L176.9,341 L179.3,341 L181.7,341 L184.1,341 L186.4,341 L188.8,341 L191.2,341 L193.6,341 L196,341 L198.3,341 L200.7,341 L203.1,341 L205.5,341 L207.8,341 L210.2,341 L212.6,341 L215,341 L217.4,341 L219.7,341 L222.1,341 L224.5,341 L226.9,341 L229.2,341 L231.6,341 L234,341 L236.4,341 L238.8,341 L241.1,341 L243.5,340.9 L245.9,340.9 L248.3,340.9 L250.6,340.9 L253,340.9 L255.4,340.8 L257.8,340.7 L260.2,340.6 L262.5,340.5 L264.9,340.4 L267.3,340.1 L269.7,339.8 L272,339.4 L274.4,338.8 L276.8,337.9 L279.2,336.8 L281.6,335.2 L283.9,332.9 L286.3,329.9 L288.7,325.7 L291.1,320.1 L293.4,312.6 L295.8,302.8 L298.2,290.1 L300.6,274.1 L303,254.5 L305.3,231.4 L307.7,205.3 L310.1,177.3 L312.5,149.1 L314.8,123.3 L317.2,102.3 L319.6,88.52 L322,83.73 L324.4,88.52 L326.7,102.3 L329.1,123.3 L331.5,149.1 L333.9,177.2 L336.2,205.3 L338.6,231.4 L341,254.5 L343.4,274.1 L345.8,290.1 L348.1,302.8 L350.5,312.6 L352.9,320.1 L355.3,325.7 L357.6,329.9 L360,332.9 L362.4,335.2 L364.8,336.8 L367.2,337.9 L369.5,338.8 L371.9,339.4 L374.3,339.8 L376.7,340.1 L379,340.4 L381.4,340.5 L383.8,340.6 L386.2,340.7 L388.6,340.8 L390.9,340.9 L393.3,340.9 L395.7,340.9 L398.1,340.9 L400.4,340.9 L402.8,341 L405.2,341 L407.6,341 L410,341 L412.3,341 L414.7,341 L417.1,341 L419.5,341 L421.8,341 L424.2,341 L426.6,341 L429,341 L431.4,341 L433.7,341 L436.1,341 L438.5,341 L440.9,341 L443.2,341 L445.6,341 L448,341 L450.4,341 L452.8,341 L455.1,341 L457.5,341 L459.9,341 L462.3,341 L464.6,341 L467,341 L469.4,341 L471.8,341 L474.2,341 L476.5,341 L478.9,341 L481.3,341 L483.7,341 L486,341 L488.4,341 L490.8,341 L493.2,341 L495.6,341 L497.9,341 L500.3,341 L502.7,341 L505.1,341 L507.4,341 L509.8,341 L512.2,341 L514.6,341 L517,341 L519.3,341 L521.7,341 L524.1,341 L526.5,341 L528.8,341 L531.2,341 L533.6,341 L536,341 L538.4,341 L540.7,341 L543.1,341 L545.5,341 L547.9,341 L550.2,341 L552.6,341 L555,341 L557.4,341 L559.8,341 " fill="none"/></g>
<g clip-path="url(#plot_window)" stroke="rgb(255,140,0)" stroke-width="1"><path d="M84.2,341 L86.58,341 L88.96,341 L91.33,341 L93.71,341 L96.09,341 L98.47,341 L100.8,341 L103.2,341 L105.6,341 L108,341 L110.4,341 L112.7,341 L115.1,341 L117.5,341 L119.9,341 L122.2,341 L124.6,341 L127,341 L129.4,341 L131.8,341 L134.1,341 L136.5,341 L138.9,341 L141.3,341 L143.6,341 L146,341 L148.4,341 L150.8,341 L153.2,341 L155.5,341 L157.9,341 L160.3,341 L162.7,341 L165,341 L167.4,341 L169.8,341 L172.2,341 L174.6,341 L176.9,341 L179.3,341 L181.7,341 L184.1,341 L186.4,341 L188.8,341 L191.2,341 L193.6,341 L196,341 L198.3,341 L200.7,341 L203.1,341 L205.5,341 L207.8,341 L210.2,341 L212.6,341 L215,341 L217.4,341 L219.7,341 L222.1,341 L224.5,341 L226.9,341 L229.2,341 L231.6,341 L234,341 L236.4,341 L238.8,341 L241.1,341 L243.5,341 L245.9,341 L248.3,341 L250.6,341 L253,341 L255.4,341 L257.8,341 L260.2,341 L262.5,341 L264.9,341 L267.3,341 L269.7,341 L272,341 L274.4,341 L276.8,341 L279.2,341 L281.6,341 L283.9,341 L286.3,341 L288.7,341 L291.1,341 L293.4,341 L295.8,341 L298.2,341 L300.6,341 L303,341 L305.3,341 L307.7,341 L310.1,341 L312.5,341 L314.8,341 L317.2,341 L319.6,341 L322,341 L324.4,341 L326.7,341 L329.1,341 L331.5,341 L333.9,340.9 L336.2,340.8 L338.6,340.5 L341,339.9 L343.4,338.9 L345.8,337 L348.1,333.9 L350.5,329.1 L352.9,322.1 L355.3,312.5 L357.6,300.2 L360,285.4 L362.4,268.6 L364.8,250.5 L367.2,232.1 L369.5,214.5 L371.9,198.7 L374.3,185.5 L376.7,175.4 L379,168.7 L381.4,165.5 L383.8,165.5 L386.2,168.5 L388.6,173.9 L390.9,181.3 L393.3,190.2 L395.7,200 L398.1,210.5 L400.4,221.1 L402.8,231.7 L405.2,242 L407.6,251.8 L410,261.1 L412.3,269.6 L414.7,277.5 L417.1,284.7 L419.5,291.3 L421.8,297.1 L424.2,302.4 L426.6,307.1 L429,311.2 L431.4,314.9 L433.7,318.1 L436.1,321 L438.5,323.5 L440.9,325.7 L443.2,327.6 L445.6,329.3 L448,330.8 L450.4,332.1 L452.8,333.2 L455.1,334.2 L457.5,335 L459.9,335.7 L462.3,336.4 L464.6,337 L467,337.5 L469.4,337.9 L471.8,338.3 L474.2,338.6 L476.5,338.9 L478.9,339.1 L481.3,339.4 L483.7,339.6 L486,339.7 L488.4,339.9 L490.8,340 L493.2,340.1 L495.6,340.2 L497.9,340.3 L500.3,340.4 L502.7,340.5 L505.1,340.5 L507.4,340.6 L509.8,340.6 L512.2,340.7 L514.6,340.7 L517,340.7 L519.3,340.8 L521.7,340.8 L524.1,340.8 L526.5,340.8 L528.8,340.8 L531.2,340.9 L533.6,340.9 L536,340.9 L538.4,340.9 L540.7,340.9 L543.1,340.9 L545.5,340.9 L547.9,340.9 L550.2,340.9 L552.6,340.9 L555,340.9 L557.4,341 L559.8,341 " fill="none"/></g>
<g clip-path="url(#plot_window)" stroke="rgb(127,255,0)" stroke-width="1"><path d="M84.2,341 L86.58,341 L88.96,341 L91.33,341 L93.71,341 L96.09,341 L98.47,341 L100.8,341 L103.2,341 L105.6,341 L108,341 L110.4,341 L112.7,341 L115.1,341 L117.5,341 L119.9,341 L122.2,341 L124.6,341 L127,341 L129.4,341 L131.8,341 L134.1,341 L136.5,341 L138.9,341 L141.3,341 L143.6,341 L146,341 L148.4,341 L150.8,341 L153.2,341 L155.5,341 L157.9,341 L160.3,341 L162.7,341 L165,341 L167.4,341 L169.8,341 L172.2,341 L174.6,341 L176.9,341 L179.3,341 L181.7,341 L184.1,341 L186.4,341 L188.8,341 L191.2,341 L193.6,341 L196,341 L198.3,341 L200.7,341 L203.1,341 L205.5,341 L207.8,341 L210.2,341 L212.6,341 L215,341 L217.4,341 L219.7,341 L222.1,341 L224.5,341 L226.9,341 L229.2,341 L231.6,341 L234,341 L236.4,341 L238.8,341 L241.1,341 L243.5,341 L245.9,341 L248.3,341 L250.6,341 L253,341 L255.4,341 L257.8,341 L260.2,341 L262.5,341 L264.9,341 L267.3,341 L269.7,341 L272,341 L274.4,341 L276.8,341 L279.2,341 L281.6,341 L283.9,341 L286.3,341 L288.7,341 L291.1,341 L293.4,341 L295.8,341 L298.2,341 L300.6,341 L303,341 L305.3,341 L307.7,341 L310.1,341 L312.5,341 L314.8,341 L317.2,341 L319.6,341 L322,341 L324.4,341 L326.7,341 L329.1,341 L331.5,341 L333.9,341 L336.2,341 L338.6,341 L341,341 L343.4,341 L345.8,341 L348.1,341 L350.5,341 L352.9,341 L355.3,341 L357.6,341 L360,341 L362.4,341 L364.8,341 L367.2,341 L369.5,341 L371.9,341 L374.3,341 L376.7,340.9 L379,340.8 L381.4,340.7 L383.8,340.4 L386.2,339.9 L388.6,339.1 L390.9,337.9 L393.3,336.2 L395.7,333.9 L398.1,330.9 L400.4,327.1 L402.8,322.6 L405.2,317.2 L407.6,311.2 L410,304.5 L412.3,297.4 L414.7,289.9 L417.1,282.4 L419.5,274.9 L421.8,267.6 L424.2,260.8 L426.6,254.5 L429,248.9 L431.4,244.1 L433.7,240.1 L436.1,237 L438.5,234.7 L440.9,233.3 L443.2,232.6 L445.6,232.8 L448,233.6 L450.4,235.1 L452.8,237.1 L455.1,239.6 L457.5,242.5 L459.9,245.7 L462.3,249.1 L464.6,252.8 L467,256.6 L469.4,260.5 L471.8,264.4 L474.2,268.3 L476.5,272.2 L478.9,276.1 L481.3,279.8 L483.7,283.4 L486,286.9 L488.4,290.3 L490.8,293.5 L493.2,296.6 L495.6,299.5 L497.9,302.3 L500.3,304.9 L502.7,307.4 L505.1,309.8 L507.4,312 L509.8,314 L512.2,315.9 L514.6,317.7 L517,319.4 L519.3,321 L521.7,322.4 L524.1,323.8 L526.5,325.1 L528.8,326.2 L531.2,327.3 L533.6,328.3 L536,329.3 L538.4,330.2 L540.7,331 L543.1,331.7 L545.5,332.4 L547.9,333 L550.2,333.6 L552.6,334.2 L555,334.7 L557.4,335.1 L559.8,335.6 " fill="none"/></g>
</g>
<g id="plotPoints" clip-path="url(#plot_window)"></g>
<g id="legendBackground" stroke="rgb(119,136,153)" fill="rgb(255,255,255)" stroke-width="1"><rect x="573.8" y="58" width="150.2" height="165"/><rect x="573.8" y="58" width="150.2" height="165"/></g>
<g id="legendPoints"><g stroke="rgb(0,0,139)" fill="rgb(255,255,255)" stroke-width="1"><line x1="588.8" y1="88" x2="603.8" y2="88"/></g>
<g stroke="rgb(139,0,0)" fill="rgb(255,255,255)" stroke-width="1"><line x1="588.8" y1="118" x2="603.8" y2="118"/></g>
<g stroke="rgb(0,100,0)" fill="rgb(255,255,255)" stroke-width="1"><line x1="588.8" y1="148" x2="603.8" y2="148"/></g>
<g stroke="rgb(255,140,0)" fill="rgb(255,255,255)" stroke-width="1"><line x1="588.8" y1="178" x2="603.8" y2="178"/></g>
<g stroke="rgb(127,255,0)" fill="rgb(255,255,255)" stroke-width="1"><line x1="588.8" y1="208" x2="603.8" y2="208"/></g>
</g>
<g id="legendText">
<text x="611.3" y="88" font-size="15" font-family="Verdana">v=10, &#x3B4;=-10</text>
<text x="611.3" y="118" font-size="15" font-family="Verdana">v=10, &#x3B4;=-5</text>
<text x="611.3" y="148" font-size="15" font-family="Verdana">v=10, &#x3B4;=0</text>
<text x="611.3" y="178" font-size="15" font-family="Verdana">v=10, &#x3B4;=5</text>
<text x="611.3" y="208" font-size="15" font-family="Verdana">v=10, &#x3B4;=10</text></g>
<g id="title">
<text x="375" y="40" text-anchor="middle" font-size="20" font-family="Verdana">Non Central T PDF</text></g>
<g id="plotXValues"></g>
<g id="plotYValues"></g>
</svg>
